<?xml version="1.0" encoding="UTF-8" standalone="no"?>
<svg
   viewBox="0 0 255.10934 78.177435"
   version="1.1"
   id="svg40"
   sodipodi:docname="e1a33bac3c8bf3627fc7fd010ccec5ae.svg"
   width="255.10934"
   height="78.177437"
   xmlns:inkscape="http://www.inkscape.org/namespaces/inkscape"
   xmlns:sodipodi="http://sodipodi.sourceforge.net/DTD/sodipodi-0.dtd"
   xmlns="http://www.w3.org/2000/svg"
   xmlns:svg="http://www.w3.org/2000/svg">
  <sodipodi:namedview
     id="namedview42"
     pagecolor="#ffffff"
     bordercolor="#666666"
     borderopacity="1.0"
     inkscape:pageshadow="2"
     inkscape:pageopacity="0.0"
     inkscape:pagecheckerboard="0" />
  <defs
     id="defs18">
    <style
       id="style2">.cls-1{fill:url(#linear-gradient);}.cls-2{fill:url(#linear-gradient-2);}.cls-3{fill:#e6e6e6;}.cls-4{fill:#975af9;}</style>
    <linearGradient
       id="linear-gradient"
       x1="-3.01"
       y1="36.009998"
       x2="106.95"
       y2="9.1300001"
       gradientUnits="userSpaceOnUse">
      <stop
         offset="0"
         stop-color="#408af7"
         id="stop4" />
      <stop
         offset="0.56"
         stop-color="#6d4df9"
         id="stop6" />
      <stop
         offset="1"
         stop-color="#46a7f8"
         id="stop8" />
    </linearGradient>
    <linearGradient
       id="linear-gradient-2"
       x1="5.7800002"
       y1="71.949997"
       x2="115.73"
       y2="45.07"
       gradientUnits="userSpaceOnUse">
      <stop
         offset="0"
         stop-color="#408af7"
         id="stop11" />
      <stop
         offset="0.56"
         stop-color="#7e30f9"
         id="stop13" />
      <stop
         offset="1"
         stop-color="#46a7f8"
         id="stop15" />
    </linearGradient>
  </defs>
  <g
     id="Layer_2"
     data-name="Layer 2"
     transform="translate(-0.01318439,0.00193169)">
    <g
       id="Layer_1-2"
       data-name="Layer 1">
      <path
         class="cls-1"
         d="M 68.84,18.23 C 70,25.7 66.79,31.36 61.58,36 A 42.46,42.46 0 0 1 53.5,41.68 91,91 0 0 1 19.32,51.82 44,44 0 0 1 5.72,51.46 C 3.46,51 1.14,50.39 0.27,47.91 -0.6,45.43 0.89,43.34 2.5,41.65 a 50.25,50.25 0 0 1 12.39,-9 c 1,-0.55 1.56,-0.27 1.47,0.9 -0.14,1.94 -0.29,3.8 -2.4,4.89 A 9.11,9.11 0 0 0 11.22,41 c -1.2,1.5 -0.85,3 1,3.45 a 26,26 0 0 0 5.87,0.42 c 0.25,0 0.76,-1 0.73,-1.45 A 42.82,42.82 0 0 1 21.28,25.27 39.4,39.4 0 0 1 58.45,0 c 13.5,0.29 24,6.14 31.94,16.92 0.71,1 1.2,2.09 1.93,3 0.28,0.37 1.15,0.74 1.42,0.57 a 31.9,31.9 0 0 0 4.87,-3.4 c 1.32,-1.22 0.91,-2.63 -0.86,-3.05 A 32.89,32.89 0 0 0 92.68,13.51 C 91.54,13.42 89.06,11.51 89,10.4 a 1.34,1.34 0 0 1 0.86,-1 c 5.61,-0.58 11.26,-1.15 16.78,0.55 4.47,1.37 5.52,4.88 2.38,8.39 -7.57,8.45 -18.43,11.67 -29.81,7.17 A 20.36,20.36 0 0 1 70,18.81 3.05,3.05 0 0 0 69.53,18.33 c -0.12,-0.06 -0.25,-0.04 -0.69,-0.1 z"
         id="path20"
         style="fill:url(#linear-gradient)" />
      <path
         class="cls-2"
         d="m 81.91,53.12 c -0.11,-1.32 -0.23,-2.15 -0.25,-3 -0.22,-8 3.86,-13.69 10,-18.24 0.86,-0.64 1.83,-1.15 2.74,-1.74 1.14,-0.76 1.77,-0.64 2.1,0.86 A 38.32,38.32 0 0 1 93.8,55.87 38,38 0 0 1 56.5,78.08 20.89,20.89 0 0 1 44.75,74 c -7.26,-5.51 -8,-15.37 -1.53,-22.21 6,-6.32 13.59,-8.46 22.1,-7.71 4.8,0.43 9.31,1.77 13,5 a 49.87,49.87 0 0 1 3.59,4.04 z"
         id="path22"
         style="fill:url(#linear-gradient-2)" />
      <path
         class="cls-3"
         d="m 141,24.06 -4.49,18.77 h -5.63 l -3,-12.56 -3,12.56 h -5.63 l -4.49,-18.77 h 4.94 l 2.42,13.59 3.29,-13.59 h 5 l 3.3,13.59 2.44,-13.59 z"
         id="path24" />
      <path
         class="cls-3"
         d="m 154.82,28.75 a 6.76,6.76 0 0 1 2.74,2.64 8,8 0 0 1 1,4 8,8 0 0 1 -1,4 6.76,6.76 0 0 1 -2.74,2.64 8.33,8.33 0 0 1 -3.94,0.92 8.44,8.44 0 0 1 -4,-0.92 6.7,6.7 0 0 1 -2.74,-2.64 7.89,7.89 0 0 1 -1,-4 7.85,7.85 0 0 1 1,-4 6.7,6.7 0 0 1 2.74,-2.64 8.44,8.44 0 0 1 4,-0.92 8.33,8.33 0 0 1 3.94,0.92 z m -6.13,4 a 3.84,3.84 0 0 0 -0.89,2.72 3.78,3.78 0 0 0 0.89,2.71 3,3 0 0 0 4.37,0 3.82,3.82 0 0 0 0.87,-2.71 3.88,3.88 0 0 0 -0.87,-2.72 3,3 0 0 0 -4.37,0 z"
         id="path26" />
      <path
         class="cls-3"
         d="m 166,23.18 v 19.65 h -4.54 V 23.18 Z"
         id="path28" />
      <path
         class="cls-3"
         d="m 178.2,28.6 a 4.4,4.4 0 0 1 1.8,2.1 v -7.52 h 4.54 V 42.83 H 180 v -2.68 a 4.45,4.45 0 0 1 -1.78,2.1 5.39,5.39 0 0 1 -2.92,0.77 6,6 0 0 1 -3.3,-0.92 6.3,6.3 0 0 1 -2.28,-2.64 9.14,9.14 0 0 1 -0.84,-4 9.15,9.15 0 0 1 0.84,-4.05 6.31,6.31 0 0 1 2.28,-2.66 6,6 0 0 1 3.28,-0.92 5.39,5.39 0 0 1 2.92,0.77 z m -3.81,4.17 a 3.76,3.76 0 0 0 -0.89,2.65 3.77,3.77 0 0 0 0.89,2.66 3.34,3.34 0 0 0 4.7,0 3.7,3.7 0 0 0 0.92,-2.63 3.71,3.71 0 0 0 -0.92,-2.64 3.11,3.11 0 0 0 -2.35,-1 3.05,3.05 0 0 0 -2.35,0.96 z"
         id="path30" />
      <path
         class="cls-4"
         d="m 219.54,24.06 -4.49,18.77 h -5.62 l -3,-12.56 -3,12.56 h -5.63 l -4.49,-18.77 h 4.94 l 2.42,13.59 3.29,-13.59 h 5 l 3.3,13.59 2.44,-13.59 z"
         id="path32" />
      <path
         class="cls-4"
         d="m 236.4,36.25 h -10.27 a 3.4,3.4 0 0 0 0.85,2.4 3,3 0 0 0 3.63,0.23 2.32,2.32 0 0 0 0.88,-1.31 h 4.81 a 6.33,6.33 0 0 1 -1.3,2.81 6.68,6.68 0 0 1 -2.5,1.93 7.85,7.85 0 0 1 -3.37,0.71 8,8 0 0 1 -3.86,-0.92 6.58,6.58 0 0 1 -2.64,-2.64 8.18,8.18 0 0 1 -1,-4 8.41,8.41 0 0 1 0.94,-4.05 6.43,6.43 0 0 1 2.65,-2.62 8.71,8.71 0 0 1 7.75,0 6.4,6.4 0 0 1 2.59,2.54 7.56,7.56 0 0 1 0.91,3.76 6.19,6.19 0 0 1 -0.07,1.16 z m -5.24,-4.1 a 2.88,2.88 0 0 0 -2,-0.74 3,3 0 0 0 -2.07,0.75 3.09,3.09 0 0 0 -0.93,2.18 h 5.79 a 2.7,2.7 0 0 0 -0.79,-2.19 z"
         id="path34" />
      <path
         class="cls-4"
         d="m 252,28.75 a 6.31,6.31 0 0 1 2.28,2.62 9.15,9.15 0 0 1 0.84,4.05 9.14,9.14 0 0 1 -0.84,4 6.3,6.3 0 0 1 -2.28,2.68 6,6 0 0 1 -3.28,0.92 5.36,5.36 0 0 1 -2.92,-0.77 4.45,4.45 0 0 1 -1.78,-2.1 v 2.68 h -4.54 V 23.18 H 244 v 7.52 a 4.4,4.4 0 0 1 1.78,-2.1 5.36,5.36 0 0 1 2.92,-0.77 6,6 0 0 1 3.3,0.92 z m -7.09,4 a 3.71,3.71 0 0 0 -0.92,2.64 3.7,3.7 0 0 0 0.92,2.63 3.34,3.34 0 0 0 4.7,0 3.77,3.77 0 0 0 0.89,-2.66 3.76,3.76 0 0 0 -0.89,-2.65 3.07,3.07 0 0 0 -2.35,-1 3.11,3.11 0 0 0 -2.4,1.07 z"
         id="path36" />
    </g>
  </g>
</svg>
