<?xml version="1.0" encoding="UTF-8" standalone="no"?>
<svg
   viewBox="0 0 255.55428 78.177435"
   version="1.1"
   id="svg14"
   sodipodi:docname="2246115486228e84faea2ce116f4c809.svg"
   width="255.55429"
   height="78.177437"
   xmlns:inkscape="http://www.inkscape.org/namespaces/inkscape"
   xmlns:sodipodi="http://sodipodi.sourceforge.net/DTD/sodipodi-0.dtd"
   xmlns="http://www.w3.org/2000/svg"
   xmlns:svg="http://www.w3.org/2000/svg">
  <sodipodi:namedview
     id="namedview16"
     pagecolor="#ffffff"
     bordercolor="#666666"
     borderopacity="1.0"
     inkscape:pageshadow="2"
     inkscape:pageopacity="0.0"
     inkscape:pagecheckerboard="0" />
  <defs
     id="defs4">
    <style
       id="style2">.cls-1,.cls-2{fill:#2d2d2d;}.cls-2{font-size:26.55px;font-family:Poppins-Bold, Poppins;font-weight:700;letter-spacing:0.02em;}</style>
  </defs>
  <g
     id="Layer_2"
     data-name="Layer 2"
     transform="translate(-0.01318439,0.00193169)">
    <g
       id="Layer_1-2"
       data-name="Layer 1">
      <path
         class="cls-1"
         d="M 68.84,18.23 C 70,25.7 66.79,31.36 61.58,36 A 42.46,42.46 0 0 1 53.5,41.68 91,91 0 0 1 19.32,51.82 44,44 0 0 1 5.72,51.46 C 3.46,51 1.14,50.39 0.27,47.91 -0.6,45.43 0.89,43.34 2.5,41.65 a 50.25,50.25 0 0 1 12.39,-9 c 1,-0.55 1.56,-0.27 1.47,0.9 -0.14,1.94 -0.29,3.8 -2.4,4.89 A 9.11,9.11 0 0 0 11.22,41 c -1.2,1.5 -0.85,3 1,3.45 a 26,26 0 0 0 5.87,0.42 c 0.25,0 0.76,-1 0.73,-1.45 A 42.82,42.82 0 0 1 21.28,25.27 39.4,39.4 0 0 1 58.45,0 c 13.5,0.29 24,6.14 31.94,16.92 0.71,1 1.2,2.09 1.93,3 0.28,0.37 1.15,0.74 1.42,0.57 a 31.9,31.9 0 0 0 4.87,-3.4 c 1.32,-1.22 0.91,-2.63 -0.86,-3.05 A 32.89,32.89 0 0 0 92.68,13.51 C 91.54,13.42 89.06,11.51 89,10.4 a 1.34,1.34 0 0 1 0.86,-1 c 5.61,-0.58 11.26,-1.15 16.78,0.55 4.47,1.37 5.52,4.88 2.38,8.39 -7.57,8.45 -18.43,11.67 -29.81,7.17 A 20.36,20.36 0 0 1 70,18.81 3.05,3.05 0 0 0 69.53,18.33 c -0.12,-0.06 -0.25,-0.04 -0.69,-0.1 z"
         id="path6" />
      <path
         class="cls-1"
         d="m 81.91,53.12 c -0.11,-1.32 -0.23,-2.15 -0.25,-3 -0.22,-8 3.86,-13.69 10,-18.24 0.86,-0.64 1.83,-1.15 2.74,-1.74 1.14,-0.76 1.77,-0.64 2.1,0.86 A 38.32,38.32 0 0 1 93.8,55.87 38,38 0 0 1 56.5,78.08 20.89,20.89 0 0 1 44.75,74 c -7.26,-5.51 -8,-15.37 -1.53,-22.21 6,-6.32 13.59,-8.46 22.1,-7.71 4.8,0.43 9.31,1.77 13,5 a 49.87,49.87 0 0 1 3.59,4.04 z"
         id="path8" />
      <text
         class="cls-2"
         transform="translate(113.95,42.83)"
         id="text10">Wold Web</text>
    </g>
  </g>
</svg>
